<?xml version="1.0" encoding="utf-8"?>
<!-- Generator: Adobe Illustrator 22.0.1, SVG Export Plug-In . SVG Version: 6.00 Build 0)  -->
<svg version="1.1" id="Layer_1" xmlns="http://www.w3.org/2000/svg" xmlns:xlink="http://www.w3.org/1999/xlink" x="0px" y="0px"
	 viewBox="0 0 1920 1920" style="enable-background:new 0 0 1920 1920;" xml:space="preserve">
<style type="text/css">
	.st0{fill:#DF1683;}
	.st1{fill:#E53E51;}
	.st2{fill:#F09F54;}
	.st3{fill:#F4DB6C;}
	.st4{fill:#00CE7C;}
	.st5{fill:#238DC1;}
	.st6{fill:#4D4084;}
</style>
<g>
	<path class="st0" d="M675.5,569.5h92.8l-68.8-109.9h-24.1c-150.8,0-275.3,114.3-291.7,260.8L492,748.9
		C494.3,649.6,575.7,569.5,675.5,569.5"/>
	<path class="st0" d="M172.8,478c0-173.3,0-268.8,189.5-268.8h180.6L474.1,99.4H362.3c-48.7,0-196.8,0-263.2,128.3
		C62.9,297.5,62.9,381.2,62.9,478v157.7l109.9,29V478z"/>
	<polygon class="st1" points="768.3,569.5 1074.2,569.5 1116.7,459.6 699.6,459.6 	"/>
	<path class="st1" d="M962.5,209.3c104.9,0,185.9,12.5,227.3,61.5l42.5-109.9c-11.5-8.2-23.1-15-34.4-20.6
		c-72.3-36.2-163.8-40.9-235.4-40.9H474.1l68.8,109.9H962.5z"/>
	<path class="st2" d="M1220.3,368.1v91.5h-103.6l-42.5,109.9h489.3c64.1,0,120.6,33.1,153.5,83.1l108.5-31.3
		c-48.4-95.8-147.5-161.7-262-161.7h-233.2v-91.5c0-108.7-47.7-171.4-97.9-207.2l-42.5,109.9
		C1209.5,294.1,1220.3,325.6,1220.3,368.1"/>
	<path class="st3" d="M1857.1,753.3c0-47.5-11.6-92.2-31.7-131.9L1717,652.6c19.1,28.9,30.2,63.5,30.2,100.7v352.2
		c0,13.7-1,26.3-2.6,38.2l105.6,36.5c4.3-22.6,6.9-47.4,6.9-74.8V753.3z"/>
	<path class="st4" d="M1479.2,1312.2c-24.3,0-47.8-1-68.4-1.8c-17-0.7-32.4-1.3-45.4-1.3h-20l81,348l-262.2-348H1037l20,109.9h52.2
		l274.5,364.3c17.7,23.4,45.8,37.4,75.1,37.4c13.8,0,27.2-3,39.8-8.8c40-18.7,61.8-63.5,51.8-106.5l-65.9-283.2
		c63.1-0.3,153.4-6.3,230.1-49.5c53.5-30.1,115.3-87,135.6-192.4l-105.6-36.5C1725.6,1291.8,1594.6,1312.2,1479.2,1312.2"/>
	<path class="st5" d="M675.5,1309.1c-71.2,0-132.9-40.8-163.4-100.1l-88.3,66.9c51.4,85.6,144.9,143.1,251.7,143.1h381.6l-20-109.9
		H675.5z"/>
	<path class="st6" d="M491.7,1125.3v-372c0-1.5,0.2-2.9,0.2-4.4l-108.2-28.5c-1.2,10.8-2,21.8-2,32.9v180.5l-209,318.1V664.7
		l-109.9-29V1305c0,41.2,27.6,78.3,67.1,90.1c8.7,2.6,17.8,3.9,27,3.9c31.8,0,61.1-15.8,78.6-42.4l146.5-222.9
		c1.5,51.9,16.7,100.3,41.8,142.1l88.3-67C499.2,1183.8,491.7,1155.4,491.7,1125.3"/>
</g>
</svg>
